# xmcd CD database file
#
# Track frame offsets:
#	150
#	12258
#	29813
#	48704
#	63101
#	82061
#	100662
#	123803
#	137910
#
# Disc length: 2110 seconds
#
# Revision: 0
# Processed by: cddbd v1.5.2PL0 Copyright (c) Steve Scherf et al.
# Submitted via: CDex 1.51
#
DISCID=77083c09
DTITLE=SONNY BOY  WILLIAMSON And THE YARDBIRDS - Live At The Crow-Daddy Club, London
DYEAR=1963
DGENRE=Blues
TTITLE0=Bye Bye Bird
TTITLE1=Pontiac Blues
TTITLE2=Take It Easy Baby
TTITLE3=I Don't Care No More
TTITLE4=Do The Weston
TTITLE5=Mister Downchild
TTITLE6=23 Hours Too Long
TTITLE7=Out On The Water Coast
TTITLE8=Baby Don't Worry
EXTD=YEAR: 1963
EXTT0=
EXTT1=
EXTT2=
EXTT3=
EXTT4=
EXTT5=
EXTT6=
EXTT7=
EXTT8=
PLAYORDER=
